<svg xmlns="http://www.w3.org/2000/svg" version="1.0" width="569.000000pt" height="439.000000pt" viewBox="0 0 569.000000 439.000000" preserveAspectRatio="xMidYMid meet">

<g transform="translate(0.000000,439.000000) scale(0.100000,-0.100000)" fill="#8809ff" stroke="none">
<path d="M3049 3785 c-333 -52 -645 -197 -888 -413 -194 -173 -363 -437 -450 -702 -138 -420 -105 -892 89 -1282 186 -373 548 -680 960 -813 197 -63 274 -76 490 -82 220 -6 315 3 466 45 l99 27 3 79 c3 72 1 78 -15 71 -71 -27 -182 -58 -258 -72 -136 -23 -424 -13 -565 20 -206 49 -404 138 -570 255 -125 87 -310 273 -382 382 -118 180 -201 391 -233 594 -22 138 -16 440 10 556 135 604 580 1042 1195 1176 70 16 127 19 325 18 268 0 337 -10 543 -79 487 -163 847 -545 971 -1030 48 -188 51 -261 51 -1141 l0 -824 75 0 75 0 0 823 c0 904 -3 973 -59 1188 -170 656 -684 1098 -1398 1204 -127 19 -414 18 -534 0z" fill="#8809ff"/>
<path d="M3190 3484 c-367 -32 -714 -211 -940 -483 -362 -438 -412 -1074 -122 -1552 168 -277 412 -474 717 -580 208 -72 478 -97 685 -64 100 16 256 60 278 77 12 11 18 148 6 148 -4 0 -37 -11 -75 -25 -326 -117 -737 -82 -1045 90 -77 43 -207 136 -258 183 -154 145 -272 366 -322 602 -27 127 -25 403 3 525 94 404 401 743 788 868 156 51 227 61 420 60 148 0 198 -4 285 -23 442 -95 764 -373 900 -778 60 -179 60 -183 60 -1113 l0 -849 75 0 75 0 0 853 c0 806 -1 860 -20 963 -103 573 -526 982 -1115 1080 -92 15 -314 25 -395 18z" fill="#8809ff"/>
<path d="M3097 3155 c-254 -48 -468 -180 -629 -389 -162 -210 -227 -437 -206 -728 30 -430 273 -745 680 -881 267 -89 560 -85 821 13 l57 21 0 75 c0 41 -3 74 -7 74 -5 0 -42 -14 -83 -31 -252 -103 -554 -99 -810 10 -361 154 -539 473 -508 908 15 227 137 453 322 600 132 104 257 159 419 184 94 14 323 7 417 -14 299 -67 542 -276 636 -546 51 -147 54 -201 54 -1073 l0 -808 75 0 75 0 0 803 c0 457 -4 839 -10 887 -43 376 -268 684 -599 817 -163 66 -256 85 -451 89 -126 2 -197 -1 -253 -11z" fill="#8809ff"/>
<path d="M3178 2850 c-153 -28 -268 -84 -375 -183 -171 -160 -245 -348 -230 -585 21 -328 186 -547 488 -645 215 -71 504 -55 691 37 l63 31 3 73 c2 41 -1 72 -5 70 -174 -88 -267 -111 -443 -112 -219 -1 -378 54 -494 171 -118 119 -179 340 -147 529 35 203 206 387 416 450 81 24 274 24 365 0 206 -55 348 -183 411 -371 11 -32 15 -219 19 -890 l5 -850 75 0 75 0 3 735 c3 802 -2 940 -43 1066 -74 235 -265 402 -525 460 -79 18 -287 26 -352 14z" fill="#8809ff"/>
</g>
</svg>